<?xml version="1.0" encoding="UTF-8" standalone="no"?>
<svg
   xmlns:dc="http://purl.org/dc/elements/1.1/"
   xmlns:cc="http://creativecommons.org/ns#"
   xmlns:rdf="http://www.w3.org/1999/02/22-rdf-syntax-ns#"
   xmlns:svg="http://www.w3.org/2000/svg"
   xmlns="http://www.w3.org/2000/svg"
   xmlns:sodipodi="http://sodipodi.sourceforge.net/DTD/sodipodi-0.dtd"
   xmlns:inkscape="http://www.inkscape.org/namespaces/inkscape"
   inkscape:version="1.0 (4035a4fb49, 2020-05-01)"
   sodipodi:docname="red_tick.svg"
   id="svg22"
   version="1.1"
   height="24px"
   width="24px"
   viewBox="0 0 24 24"
   fill="#000000">
  <metadata
     id="metadata28">
    <rdf:RDF>
      <cc:Work
         rdf:about="">
        <dc:format>image/svg+xml</dc:format>
        <dc:type
           rdf:resource="http://purl.org/dc/dcmitype/StillImage" />
        <dc:title></dc:title>
      </cc:Work>
    </rdf:RDF>
  </metadata>
  <defs
     id="defs26" />
  <sodipodi:namedview
     inkscape:current-layer="svg22"
     inkscape:window-maximized="1"
     inkscape:window-y="-8"
     inkscape:window-x="-8"
     inkscape:cy="12"
     inkscape:cx="12"
     inkscape:zoom="30.625"
     showgrid="false"
     id="namedview24"
     inkscape:window-height="1137"
     inkscape:window-width="1920"
     inkscape:pageshadow="2"
     inkscape:pageopacity="0"
     guidetolerance="10"
     gridtolerance="10"
     objecttolerance="10"
     borderopacity="1"
     bordercolor="#666666"
     pagecolor="#ffffff" />
  <path
     style="fill:#ff5656;fill-opacity:1"
     id="path20"
     d="M 12 2 C 6.486 2 2 6.486 2 12 C 2 17.514 6.486 22 12 22 C 17.514 22 22 17.514 22 12 C 22 10.874 21.803984 9.7942031 21.458984 8.7832031 L 19.839844 10.402344 C 19.944844 10.918344 20 11.453 20 12 C 20 16.411 16.411 20 12 20 C 7.589 20 4 16.411 4 12 C 4 7.589 7.589 4 12 4 C 13.633 4 15.151922 4.4938906 16.419922 5.3378906 L 17.851562 3.90625 C 16.203562 2.71225 14.185 2 12 2 z M 21.292969 3.2929688 L 11 13.585938 L 7.7070312 10.292969 L 6.2929688 11.707031 L 11 16.414062 L 22.707031 4.7070312 L 21.292969 3.2929688 z" />
</svg>
