<?xml version="1.0" encoding="UTF-8" standalone="no"?>
<svg
   xmlns:dc="http://purl.org/dc/elements/1.1/"
   xmlns:cc="http://creativecommons.org/ns#"
   xmlns:rdf="http://www.w3.org/1999/02/22-rdf-syntax-ns#"
   xmlns:svg="http://www.w3.org/2000/svg"
   xmlns="http://www.w3.org/2000/svg"
   xmlns:sodipodi="http://sodipodi.sourceforge.net/DTD/sodipodi-0.dtd"
   xmlns:inkscape="http://www.inkscape.org/namespaces/inkscape"
   inkscape:version="1.0 (4035a4fb49, 2020-05-01)"
   sodipodi:docname="windows-phone.svg"
   viewBox="0 0 992 310"
   height="310"
   width="992"
   id="svg10"
   version="1.1">
  <metadata
     id="metadata16">
    <rdf:RDF>
      <cc:Work
         rdf:about="">
        <dc:format>image/svg+xml</dc:format>
        <dc:type
           rdf:resource="http://purl.org/dc/dcmitype/StillImage" />
        <dc:title></dc:title>
      </cc:Work>
    </rdf:RDF>
  </metadata>
  <defs
     id="defs14" />
  <sodipodi:namedview
     inkscape:current-layer="g18"
     inkscape:window-maximized="1"
     inkscape:window-y="-9"
     inkscape:window-x="-9"
     inkscape:cy="169.99304"
     inkscape:cx="468.96999"
     inkscape:zoom="1.2378433"
     showgrid="false"
     id="namedview12"
     inkscape:window-height="1001"
     inkscape:window-width="1920"
     inkscape:pageshadow="2"
     inkscape:pageopacity="0"
     guidetolerance="10"
     gridtolerance="10"
     objecttolerance="10"
     borderopacity="1"
     bordercolor="#666666"
     pagecolor="#ffffff" />
  <g
     id="g18"
     inkscape:label="Image"
     inkscape:groupmode="layer">
    <path
       id="path22"
       d="M 37.375462,307.57409 C 28.646377,305.71827 23.986094,303.17799 16.130012,295.99336 8.1015126,288.65105 3.7566936,280.06872 2.1822703,268.44238 0.70688915,257.54742 0.70688915,52.387806 2.1822703,41.492834 2.7973488,36.95079 4.7070577,30.229695 6.4260697,26.557088 10.50903,17.833965 21.634897,7.6787273 31.134984,4.0037906 L 37.962301,1.3627661 H 496.87005 c 434.91846,0 459.21454,0.103416 464.77616,1.9791508 11.99987,4.0470205 22.59206,14.8598781 26.72223,27.2789131 l 2.61969,7.877171 V 154.40495 270.3119 l -2.62087,7.87717 c -5.17631,15.55777 -18.36313,26.78793 -34.89617,29.71828 -10.53176,1.86667 -907.282407,1.54044 -916.095628,-0.33326 z M 244.52947,256.478 l 15.2578,-5.36052 0.30169,-74.9663 0.30171,-74.96631 -14.97266,-5.32128 c -8.23496,-2.926695 -16.55713,-5.245115 -18.4937,-5.152041 -1.93657,0.09306 -38.11517,6.866316 -80.39689,15.051651 l -76.875841,14.88245 -0.304828,54.51034 c -0.192752,34.46874 0.117685,54.91544 0.844356,55.61215 0.986275,0.94564 152.448373,30.78654 157.320033,30.99503 0.9683,0.0414 8.62654,-2.33689 17.01833,-5.28517 z M 163.6775,211.74086 c -10.25588,-1.45009 -19.36656,-2.90124 -20.24592,-3.22478 -1.24788,-0.45912 -1.59886,-4.1781 -1.59886,-16.94058 v -16.35231 h 22.88671 22.8867 v 19.69293 19.69293 l -2.64078,-0.11583 c -1.45242,-0.0637 -11.03195,-1.30228 -21.28785,-2.75236 z m -45.90516,-6.06195 -12.91044,-1.84626 -0.32849,-14.30473 -0.32848,-14.30473 h 17.64021 17.64022 v 16.317 16.317 l -4.4013,-0.16601 c -2.4207,-0.0913 -10.21099,-0.99683 -17.31172,-2.01227 z m -13.49728,-46.75128 c 0,-14.95542 -2.22728,-13.00029 17.9341,-15.74271 19.29199,-2.62415 17.2762,-4.19591 17.2762,13.47065 v 15.19169 h -17.60514 -17.60516 z m 37.55766,-2.30737 c 0,-11.15688 0.39214,-15.3646 1.46709,-15.74175 1.24164,-0.43563 11.64141,-1.96557 39.31819,-5.78417 l 4.98813,-0.68823 v 18.72058 18.72057 h -22.8867 -22.88671 z m 364.65056,92.13349 c 2.2548,-1.02587 4.3717,-2.54504 4.70425,-3.37593 1.0638,-2.65801 2.99539,-1.61558 2.41357,1.30257 -0.50832,2.54952 -0.19104,2.81327 3.38422,2.81327 h 3.94512 v -32.07134 -32.07134 h -3.52103 -3.52103 v 12.99834 12.99833 l -4.25498,-3.11167 c -5.58722,-4.08596 -14.31132,-4.32988 -20.64425,-0.5772 -13.96025,8.27235 -13.40016,36.23968 0.83884,41.88661 3.96061,1.57071 12.33826,1.17251 16.65529,-0.79164 z m -11.96059,-4.82515 c -10.36627,-4.06799 -11.2149,-24.59589 -1.27496,-30.84041 5.6251,-3.53382 15.36768,-1.39266 18.49377,4.06445 2.26579,3.9553 1.77094,17.74914 -0.77013,21.4675 -3.68308,5.38944 -10.57469,7.61355 -16.44868,5.30846 z m 72.73184,2.85452 c 12.2595,-8.96543 11.81639,-30.64998 -0.78974,-38.64852 -6.63808,-4.21186 -17.14151,-4.18705 -24.69707,0.0584 -7.72212,4.33896 -10.66596,10.60082 -10.09353,21.46984 0.76347,14.49529 8.58999,21.41467 23.42239,20.70758 6.37875,-0.30409 8.5408,-0.942 12.15795,-3.58725 z m -19.97223,-3.37261 c -5.74918,-2.40105 -8.11918,-6.86648 -8.11918,-15.29774 0,-5.2932 0.61015,-8.18559 2.20789,-10.46663 4.79473,-6.84531 15.40264,-8.59778 21.6304,-3.57343 5.78426,4.66657 7.12758,17.10733 2.69946,25.00019 -2.9769,5.30611 -11.36787,7.2822 -18.41857,4.33761 z m 122.70513,5.23743 c 5.69216,-2.72637 8.10908,-9.20752 5.58359,-14.97268 -1.39337,-3.18072 -3.45774,-4.86133 -10.05319,-8.18432 -8.62073,-4.34339 -10.64598,-6.93137 -8.47198,-10.8261 2.01702,-3.61354 9.13201,-4.42744 15.58236,-1.78251 1.70072,0.69736 2.05393,0.24841 2.05393,-2.61076 0,-3.07835 -0.51121,-3.58492 -4.7121,-4.66949 -10.50677,-2.71259 -21.1088,3.32452 -21.1088,12.01997 0,5.75924 2.40081,8.79024 9.76454,12.32771 7.89487,3.79261 10.18799,5.81025 10.18799,8.96405 0,5.26425 -8.95981,7.84255 -15.25783,4.39065 -4.16838,-2.28468 -4.6947,-2.10171 -4.6947,1.63204 0,1.97476 0.83225,3.78478 2.05394,4.46702 3.33474,1.86228 14.53287,1.41864 19.07225,-0.75558 z m 65.51001,-1.03933 c 7.18057,-5.04565 9.0511,-15.06449 4.04189,-21.64903 -1.21787,-1.60089 -6.82141,-5.83801 -12.45233,-9.41581 -13.36764,-8.49365 -15.40204,-12.82896 -8.93145,-19.03291 3.32746,-3.19032 4.02086,-3.38499 10.26968,-2.88315 3.68571,0.296 7.62556,0.91595 8.75522,1.37768 1.73051,0.7073 2.05393,0.2225 2.05393,-3.07883 0,-3.48827 -0.40255,-3.99552 -3.66774,-4.62164 -10.89407,-2.08902 -19.60623,0.008 -24.84873,5.98187 -2.58891,2.94995 -3.17281,4.73121 -3.17281,9.67899 0,5.21325 0.52518,6.63722 3.74457,10.1528 2.05953,2.24899 6.54409,5.60391 9.96569,7.45537 13.24626,7.16765 16.64445,13.54725 10.40346,19.53103 -3.75282,3.59818 -13.1973,3.83966 -20.00584,0.51151 -2.53232,-1.23784 -4.78849,-2.25062 -5.01373,-2.25062 -0.22524,0 -0.24561,1.89896 -0.0454,4.21991 0.31764,3.67953 0.89032,4.40061 4.47214,5.63095 6.1195,2.10203 20.49823,1.15559 24.43132,-1.60812 z m 36.38309,-0.63345 c 0.33989,-2.83023 0.10095,-3.03074 -2.93419,-2.46208 -2.00226,0.37515 -4.22916,-0.0369 -5.65158,-1.04566 -2.10037,-1.48958 -2.38803,-3.2137 -2.73404,-16.38686 l -0.38669,-14.72213 h 5.96165 c 5.84163,0 5.96166,-0.068 5.96166,-3.37593 0,-3.30091 -0.1304,-3.37593 -5.86838,-3.37593 h -5.86839 v -6.18921 c 0,-3.40406 -0.2297,-6.18921 -0.51043,-6.18921 -0.28074,0 -1.86522,0.49386 -3.52103,1.09746 -2.61946,0.95487 -3.0106,1.75899 -3.0106,6.18921 0,5.06894 -0.0184,5.09175 -4.10786,5.09175 -3.78185,0 -4.10788,0.26793 -4.10788,3.37593 0,3.10799 0.32603,3.37593 4.10788,3.37593 h 4.10786 v 15.8409 15.84091 l 3.49607,3.352 c 3.05505,2.92913 4.20252,3.30861 9.09601,3.00804 5.1259,-0.31485 5.63125,-0.60476 5.96994,-3.42512 z m 36.23097,2.44355 c 8.19058,-2.97545 13.21418,-11.28011 13.2545,-21.91148 0.0464,-12.25878 -6.79628,-20.81818 -17.84169,-22.31749 -14.06493,-1.90918 -25.16136,6.24146 -26.40539,19.39554 -0.34748,3.67412 -0.27304,8.51363 0.16541,10.75447 0.9406,4.80729 6.81085,11.62273 11.8095,13.71102 4.31945,1.80455 14.51985,2.00189 19.01767,0.36794 z m -15.80768,-6.11988 c -4.47586,-1.86461 -8.41815,-8.97636 -8.41815,-15.18606 0,-5.78581 3.853,-13.05417 8.01368,-15.11706 9.40294,-4.66207 18.77771,-0.49715 21.26602,9.44784 3.89118,15.55187 -7.1342,26.57396 -20.86155,20.85528 z m 98.95945,5.6896 c 3.36297,-1.34723 4.07017,-2.21755 4.07017,-5.00888 v -3.37834 l -4.98812,2.1709 c -5.97581,2.60072 -10.15181,2.76792 -15.51096,0.621 -4.10702,-1.64531 -7.66917,-6.626 -7.66917,-10.72322 0,-2.21123 0.6545,-2.3065 15.84465,-2.3065 h 15.84464 l -0.0259,-5.34522 c -0.0306,-6.33423 -3.31638,-13.87195 -7.1827,-16.47712 -14.15537,-9.53807 -32.72104,1.65145 -32.68999,19.70228 0.016,9.25715 4.33185,17.44155 10.81261,20.50416 4.82629,2.28075 16.08776,2.40698 21.49466,0.24094 z m -24.09808,-26.55809 c 0,-2.26114 3.5249,-7.69627 6.12283,-9.44095 4.08417,-2.74277 11.06635,-2.25741 14.46987,1.00586 1.58447,1.51917 2.88084,3.5033 2.88084,4.4092 0,0.90588 0.32059,2.44808 0.71242,3.42707 0.62201,1.55419 -0.86695,1.78001 -11.73678,1.78001 -7.90965,0 -12.44918,-0.43071 -12.44918,-1.18119 z m -512.66353,3.52922 c 3.74062,-12.63431 6.9794,-23.14241 7.19732,-23.35134 0.21792,-0.20893 3.50778,10.27835 7.31084,23.30507 l 6.91461,23.68495 4.65519,-0.33361 4.65518,-0.33362 8.53766,-28.69541 c 4.69572,-15.78248 8.55542,-29.3284 8.57713,-30.10205 0.0239,-0.85205 -1.50584,-1.40664 -3.87997,-1.40664 h -3.91944 l -6.21964,22.78753 c -3.42079,12.53315 -6.61239,23.80031 -7.09244,25.03816 -0.95945,2.47394 -1.06784,2.1661 -8.71679,-24.75683 -2.28592,-8.04597 -4.7084,-16.52799 -5.38334,-18.84894 -1.09296,-3.75848 -1.63908,-4.21899 -4.99449,-4.21152 l -3.76733,0.008 -7.55366,25.28944 c -4.15452,13.9092 -7.65576,25.17259 -7.78057,25.02976 -0.12477,-0.14283 -2.17769,-7.09595 -4.56201,-15.45138 -2.38431,-8.35543 -5.05975,-17.47044 -5.9454,-20.25558 -0.88565,-2.78515 -2.18794,-7.21605 -2.89395,-9.84647 -1.20946,-4.50614 -1.52637,-4.78256 -5.48318,-4.78256 -3.42282,0 -4.09962,0.3642 -3.65943,1.96929 0.29704,1.08311 4.44313,14.77897 9.21351,30.43524 l 8.67343,28.46595 4.65782,-0.3332 4.65784,-0.33319 6.80111,-22.97145 z m 64.05078,1.87188 -0.31876,-21.66222 h -3.52103 -3.52103 l -0.31875,21.66222 -0.31878,21.66222 h 4.15856 4.15856 z m 20.4253,5.81275 0.38213,-15.84947 3.83297,-3.28081 c 6.83654,-5.85168 15.48431,-3.74249 17.82791,4.34822 0.66701,2.30272 1.21569,10.13682 1.21928,17.40914 l 0.006,13.22239 h 3.52104 3.52103 l -0.006,-14.91036 c -0.006,-16.66645 -1.19607,-22.44045 -5.38663,-26.16408 -5.56999,-4.94938 -15.80027,-4.45171 -22.01547,1.07097 l -3.10647,2.76077 v -3.3935 c 0,-3.15069 -0.27293,-3.36826 -3.81445,-3.04087 l -3.81446,0.35263 -0.31876,21.66222 -0.31877,21.66222 h 4.04451 4.0445 z m 167.67271,0.0951 c 2.80678,-8.66488 5.45672,-15.75434 5.88879,-15.75434 0.43204,0 1.98333,4.17772 3.44732,9.28381 1.464,5.1061 3.38591,11.45367 4.27096,14.10571 0.88503,2.65204 1.60914,5.56378 1.60914,6.47053 0,1.92497 7.61918,2.35924 8.81604,0.50249 0.40633,-0.63039 3.35577,-9.61881 6.55432,-19.97426 3.19855,-10.35546 6.1135,-19.74976 6.4777,-20.87621 0.56052,-1.73369 0.0776,-1.99283 -3.14497,-1.68797 -3.71245,0.35119 -3.87566,0.59805 -6.56206,9.92528 -1.5152,5.26083 -3.63318,12.98446 -4.70662,17.16364 -1.07344,4.17917 -2.26104,7.3026 -2.63912,6.94092 -0.37808,-0.36166 -2.83866,-8.0853 -5.46797,-17.16363 -4.7603,-16.43613 -4.79504,-16.50606 -8.20288,-16.50606 -3.36886,0 -3.49912,0.2373 -8.33859,15.19168 -2.70395,8.35543 -5.25301,16.20447 -5.66458,17.44231 -0.52077,1.56627 -1.74269,-1.17109 -4.0186,-9.00248 -7.42847,-25.56134 -6.82422,-24.19417 -10.69312,-24.19417 -1.91853,0 -3.48824,0.57532 -3.48824,1.27848 0,0.70316 2.66739,9.69157 5.92752,19.97425 3.26013,10.28268 6.20058,19.58196 6.53432,20.66507 0.41794,1.35642 1.80352,1.9693 4.45208,1.9693 h 3.84529 z m 232.34649,2.21448 c 0,-15.3386 1.43603,-20.25319 6.67727,-22.85184 1.83761,-0.91112 4.78406,-1.3921 6.54767,-1.06887 2.93814,0.53852 3.20655,0.29416 3.20655,-2.9194 0,-3.31928 -0.24226,-3.50712 -4.52333,-3.50712 -4.60656,0 -10.55387,3.81203 -10.88899,6.97946 -0.085,0.8032 -0.48109,-0.312 -0.88026,-2.47822 -0.599,-3.25075 -1.28942,-4.00077 -3.95336,-4.29465 l -3.2276,-0.35608 v 22.0183 22.01829 h 3.52101 3.52104 z m -419.39198,-44.5015 c 0.99886,-2.49572 -1.9831,-5.12997 -5.37867,-4.75153 -3.76469,0.41959 -4.9261,5.08034 -1.81032,7.26477 2.29115,1.60628 6.0688,0.28563 7.18899,-2.51324 z m -4.18718,-50.16048 c 10.00801,-3.25464 15.13951,-10.77401 15.13951,-22.1844 0,-14.10358 -8.23945,-22.655895 -21.82712,-22.655895 -5.6456,0 -12.50762,2.289849 -16.14676,5.388145 -8.75826,7.45661 -8.65839,27.98245 0.17276,35.51135 5.40565,4.60853 15.3114,6.33111 22.66161,3.9408 z m -16.59356,-8.54904 c -7.00953,-6.02237 -7.29488,-19.35012 -0.55274,-25.81581 4.63705,-4.44691 8.84125,-5.53397 14.79174,-3.82463 5.09504,1.4636 7.8161,4.66776 9.38179,11.04743 1.71135,6.97321 0.0807,13.85725 -4.2708,18.03036 -3.30257,3.16713 -4.61337,3.65726 -9.78089,3.65726 -4.8541,0 -6.63915,-0.57729 -9.5691,-3.09461 z m 205.55558,8.56805 c 19.07223,-6.11152 20.38463,-36.92921 1.85925,-43.659038 -8.07816,-2.934595 -20.37893,-0.449663 -25.69974,5.191708 -7.88005,8.3548 -7.23154,27.33732 1.17888,34.50752 5.39317,4.59788 15.27939,6.32535 22.66161,3.95981 z m -15.94688,-7.913 c -11.23034,-8.46975 -6.81918,-28.82091 6.70303,-30.92484 5.20736,-0.81021 11.5086,1.92985 14.01376,6.0938 4.67805,7.77563 3.34483,19.53626 -2.77435,24.47303 -4.62459,3.73098 -13.24209,3.90292 -17.94244,0.35801 z m 57.71115,7.99115 c 1.8172,-0.66015 4.49236,-2.26759 5.94479,-3.5721 l 2.64077,-2.37181 v 3.00944 c 0,2.5936 0.48652,3.00943 3.52103,3.00943 h 3.52103 V 123.9657 c 0,-19.55892 -0.90106,-22.7815 -7.25011,-25.929417 -2.56801,-1.273232 -5.68336,-1.686322 -10.24982,-1.359093 -8.8686,0.635507 -13.50216,2.895524 -13.97389,6.81579 -0.42792,3.55617 0.37644,3.75343 5.43643,1.3332 9.27876,-4.43811 16.85598,-2.77357 18.41818,4.04604 0.4403,1.922 0.56305,3.72223 0.2728,4.00052 -0.29026,0.27829 -4.81286,1.22833 -10.05024,2.11121 -10.68755,1.80161 -13.36594,2.88743 -15.99296,6.48344 -2.39421,3.27736 -2.3427,12.02932 0.0903,15.35989 3.55619,4.86794 11.31514,6.87079 17.67158,4.56165 z m -10.19327,-7.80222 c -5.59847,-5.36776 -1.4859,-11.6975 8.38146,-12.90002 3.45922,-0.42158 7.21377,-1.01718 8.34343,-1.32358 1.70074,-0.4613 2.05394,0.18692 2.05394,3.7696 0,4.24629 -2.22012,8.54645 -5.81453,11.2622 -2.92543,2.2103 -10.29525,1.75086 -12.9643,-0.8082 z m 60.66138,7.80558 c 1.81722,-0.65829 4.75644,-2.52539 6.53163,-4.14912 l 3.22761,-2.95221 v 3.58646 c 0,3.23475 0.3453,3.58647 3.52104,3.58647 h 3.52103 v -32.634 -32.633998 h -3.52103 -3.52104 V 89.103053 102.0102 l -4.27166,-2.779366 c -9.17808,-5.97174 -21.86588,-2.336459 -27.32003,7.827676 -2.39412,4.46159 -2.9594,7.09638 -2.89716,13.50373 0.0824,8.47859 1.77203,12.94161 6.50312,17.17679 5.12717,4.58979 11.89602,5.94652 18.22649,3.65326 z m -11.22978,-7.38999 c -5.86114,-3.93613 -7.91455,-16.4376 -3.9498,-24.0471 1.14548,-2.19849 3.93481,-4.9051 6.31343,-6.12622 3.77191,-1.93637 4.82302,-2.02626 9.15214,-0.78268 6.60295,1.89676 9.46304,6.45881 9.46887,15.10355 0.007,11.73533 -4.5327,17.68749 -13.4929,17.68749 -2.61757,0 -5.98888,-0.82577 -7.49174,-1.83504 z m 148.11727,6.95654 c 10.66607,-3.64725 15.9065,-14.14307 13.66233,-27.36364 -1.23668,-7.28539 -4.56346,-11.98324 -10.56451,-14.918582 -5.0357,-2.463157 -14.23289,-2.947367 -19.53059,-1.028241 -4.13875,1.499285 -9.39025,6.204983 -11.85053,10.618853 -2.53193,4.54239 -2.53593,17.95242 -0.006,22.50621 5.46194,9.83423 17.08215,14.0179 28.29004,10.1854 z m -16.35584,-7.27039 c -8.49177,-4.96471 -8.4935,-23.47681 -0.002,-28.81096 7.73101,-4.85679 17.94405,-2.16284 21.33956,5.62886 3.48542,7.99802 1.33592,19.70054 -4.31567,23.49595 -3.73968,2.51143 -12.46396,2.35056 -17.02123,-0.31385 z m -458.92129,5.40049 c 6.66347,-2.14366 15.42803,-10.19493 17.96761,-16.50537 3.25299,-8.08315 2.87905,-20.66965 -0.82492,-27.766045 C 369.6573,83.881735 359.31026,79.571843 338.7639,79.571843 h -11.49021 v 31.087637 31.08763 l 13.20388,-0.59863 c 7.26213,-0.32924 15.24738,-1.25602 17.74497,-2.05952 z m -23.31879,-5.65626 c -0.35163,-0.87858 -0.49575,-11.71093 -0.32025,-24.07188 l 0.31911,-22.474461 h 9.38941 c 13.12986,0 19.69085,3.095953 23.59423,11.133492 6.20402,12.774859 2.01904,27.963959 -9.21941,33.461109 -6.18063,3.0232 -22.78834,4.38724 -23.76309,1.95174 z m 126.25639,-8.2774 c 2.85686,-8.96973 5.45839,-16.31005 5.78114,-16.31182 0.32277,-0.002 2.75389,7.21052 5.40252,16.02728 l 4.81569,16.03049 h 3.94335 c 3.9157,0 3.96279,-0.0631 6.71585,-9.00248 2.32113,-7.53693 4.63203,-14.77236 10.35813,-32.431489 0.56257,-1.734958 0.0799,-1.993048 -3.15769,-1.687965 l -3.8218,0.360144 -4.86505,16.83359 c -2.67578,9.25846 -5.13722,16.34792 -5.46989,15.75434 -0.33266,-0.59359 -1.47636,-4.11758 -2.54158,-7.8311 -7.1273,-24.847406 -7.07701,-24.731431 -10.88152,-25.092206 -3.50577,-0.33245 -3.56528,-0.243967 -6.81064,10.127786 -1.80067,5.75476 -4.13395,13.37492 -5.18506,16.93371 -1.0511,3.55879 -2.2362,6.47053 -2.6335,6.47053 -0.39733,0 -2.79395,-7.46924 -5.3258,-16.59832 l -4.60338,-16.59833 -3.81445,-0.352627 c -2.09796,-0.193947 -3.81765,0.05919 -3.82156,0.562655 -0.003,0.503408 2.98891,10.410082 6.6507,22.014852 l 6.6578,21.09957 h 3.70621 3.70621 z m 52.72824,1.62369 c 0,-16.37636 1.12834,-20.08091 7.00364,-22.99393 5.04878,-2.50324 8.01715,-2.10739 11.86545,1.58236 l 3.43076,3.28936 v 16.40357 16.40356 h 4.21321 4.21321 l -0.41455,-17.16098 c -0.46004,-19.04528 -1.67233,-23.02026 -7.97345,-26.144418 -6.44034,-3.193192 -13.79423,-2.024264 -19.6975,3.131008 l -2.64077,2.30615 v -3.00944 c 0,-2.689139 -0.4372,-3.009425 -4.10787,-3.009425 h -4.10787 v 21.943555 21.94355 h 4.10787 4.10787 z m 50.4681,-17.94908 V 76.195892 h -3.52102 -3.52103 v 32.633998 32.634 h 3.52103 3.52102 z m 193.65674,13.50372 v -19.13028 h 5.28154 c 4.8512,0 5.28156,-0.22922 5.28156,-2.81327 0,-2.595212 -0.42066,-2.813275 -5.42689,-2.813275 h -5.42688 l 0.52942,-6.120989 c 0.66507,-7.689526 2.30368,-9.633353 8.12069,-9.633353 4.06263,0 4.551,-0.299591 4.551,-2.791827 0,-5.46885 -8.93919,-5.199631 -15.55556,0.468489 -3.34303,2.863903 -3.87191,4.114438 -4.39224,10.385499 -0.58793,7.086123 -0.61476,7.131675 -4.40599,7.482153 -3.12866,0.289228 -3.81444,0.832775 -3.81444,3.023303 0,2.19053 0.68578,2.73408 3.81444,3.0233 l 3.81445,0.35263 0.3218,18.84895 0.3218,18.84895 h 3.49265 3.49265 z m 24.65376,6.47054 c 0.003,-6.96286 0.54995,-14.53567 1.21411,-16.82847 1.59744,-5.5147 6.36828,-9.08874 11.38293,-8.52743 3.63821,0.40724 3.82789,0.24449 3.82789,-3.28415 0,-3.235291 -0.38716,-3.712625 -3.01134,-3.712625 -3.99286,0 -7.55764,1.803726 -10.77352,5.451225 l -2.63495,2.9886 -0.005,-3.65726 c -0.004,-3.312167 -0.338,-3.657255 -3.52681,-3.657255 h -3.52103 v 21.943555 21.94355 h 3.52103 3.52102 l 0.006,-12.65974 z m 83.32455,-3.20714 v -15.86688 l 3.99048,-3.82605 c 4.25511,-4.07974 5.81241,-4.4753 10.66084,-2.7079 5.03899,1.83686 6.47486,7.07101 6.47486,23.60253 v 14.66518 h 3.40847 3.40848 l 0.41252,-15.47302 c 0.33506,-12.56825 0.80761,-16.0326 2.51712,-18.45382 4.42442,-6.26639 13.80879,-6.74783 16.93726,-0.86892 0.94702,1.77965 1.45579,8.28525 1.4671,18.76009 l 0.0173,16.03567 h 4.10788 4.10787 v -14.69338 c 0,-8.08136 -0.59272,-16.95025 -1.31715,-19.70864 -1.82953,-6.96636 -6.55104,-10.6117 -13.7373,-10.606186 -5.72635,0.0045 -12.62171,3.083372 -13.86563,6.191436 -0.91055,2.27505 -2.46574,2.12044 -3.27546,-0.32561 -1.00652,-3.040566 -6.91176,-5.870035 -12.25103,-5.870035 -3.65753,0 -5.73126,0.812406 -8.91491,3.492501 l -4.14871,3.492504 v -2.92985 c 0,-2.598193 -0.46502,-2.929845 -4.10788,-2.929845 h -4.10787 v 21.943555 21.94355 h 4.10787 4.10788 z M 118.4368,87.907231 c 0.74175,-18.959597 1.93128,-22.448205 9.27151,-27.190937 8.93728,-5.774619 25.14561,-8.393306 31.72957,-5.126339 6.81178,3.380004 8.21181,7.631989 8.21391,24.946247 0.001,13.243325 0.22258,14.949532 1.85834,14.347705 1.02108,-0.375685 2.38041,-0.683052 3.02077,-0.683052 0.73322,0 1.02359,-5.936923 0.78426,-16.03567 -0.43172,-18.218738 -2.02408,-23.060272 -9.06272,-27.555245 -5.2182,-3.332392 -15.97255,-3.414281 -28.33594,-0.215756 -10.37639,2.684461 -16.38712,6.812437 -20.11143,13.811855 -2.13824,4.018606 -2.56733,7.243936 -3.06766,23.059327 l -0.5817,18.387214 2.80831,-0.38063 c 2.78595,-0.37762 2.81361,-0.51589 3.47278,-17.364719 z m 32.85676,1.66897 c 0.80817,-10.210963 1.36877,-11.432183 6.45269,-14.057228 3.10868,-1.605142 4.03898,-2.804138 4.03898,-5.205527 0,-3.752966 -0.46279,-3.794512 -6.34487,-0.569576 -7.87748,4.31894 -9.44364,7.39807 -9.90662,19.476891 l -0.40687,10.614589 2.75421,-0.971379 c 2.45668,-0.866432 2.82532,-1.869804 3.41248,-9.28777 z m 47.82936,-10.046026 c -0.45453,-9.115451 -0.82353,-10.472834 -3.56011,-13.09663 -2.22661,-2.13486 -4.59028,-3.050851 -8.73244,-3.384078 -6.7076,-0.539597 -8.77674,0.48969 -7.84581,3.90288 0.56942,2.08772 1.50291,2.491684 5.75772,2.491684 6.925,0 8.73223,2.613668 8.73223,12.628805 0,7.479891 0.0592,7.626778 3.07775,7.626778 h 3.07777 z"
       style="fill:#000000;stroke-width:1.14924" />
  </g>
</svg>
